<?xml version="1.0" encoding="UTF-8"?><svg id="a" xmlns="http://www.w3.org/2000/svg" viewBox="0 0 1030.45 306.7"><defs><style>.b{fill:#939393;}.c{fill:#eee;}</style></defs><path class="c" d="M918.37,205.41l-44.22-.57c-3.43.02-4.75-.35-8.32-.78l-10.31-1.25.36-15.95c.04-1.75-.31-3.14-1.27-4.03-.73-.67-2.14-.79-3.54-.98l-9.92-1.37-9.99.82-11.06.83c-8.05.6-15.75,1.22-22.87-1.12-.71-2.91,1.02-3.32,2.27-4.97l80.35-105.66-131.06-.43.06-69.87,151.04.26,22.56.05,106.38-.28.09,60.03-110.53,145.28Z"/><path class="b" d="M918.37,205.41l-23.2,30.92,135.28.04-.05,70.22h-284.27s-.03-60.52-.03-60.52l47.63-62.5c.94-1.41,2.06-2.29,3.48-2.57,7.13,2.35,14.82,1.73,22.87,1.12l11.06-.83,9.99-.82,9.92,1.37c1.4.19,2.82.31,3.54.98.96.89,1.31,2.28,1.27,4.03l-.36,15.95,10.31,1.25c3.58.43,4.9.8,8.32.78l44.22.57Z"/><path class="b" d="M731.04,138.84l.04,167.8-102.11-.15-.02-190.3-14.05.11c-.74-3.4-.2-6.9-.22-10.8l-.17-28.48.44-28.02c2.68-3.19,5.66-5.8,9.61-8.45.8,10.27-1.15,27.34,2.4,29.58.56.35.7-1.48,1.45-1.97,2.51-1.62,7.38-3.26,10.45-2.47,4.59,1.18.12,16.56,3.2,25.97l1.71-9.66.47-.66c-.32-.63-.77-1.17-.97-2.3l10.76,1.15-.57,60.77c5.22-.42,9.6.67,14.7,2.38.95-2.36.43-4.29.53-6.09.11-1.96,2.45-1.67,3.34-2.07,1.41-.65,2.44,1.3,3.36,1.44,4.66.3,8.94-1.94,13.21-3.61l.3-9.46,7.77-2.04c2.84-2.28,4-2.83,7.65-3.24,2.73-.3,4.29,1.87,6.86,3.54,3.84-.14,7.88-1.69,12.21-.66l.3,40.07c0,.91,2.29,1.25,2.91.68.22-.2,1.09-14.5-.07-22.89,2.31-.63,3.37-.33,4.51-.17ZM644.91,81.77l-.53.9c.93.54,1.2-.54.53-.9Z"/><path class="c" d="M731.04,138.84c-1.14-.16-2.2-.45-4.51.17,1.16,8.39.29,22.69.07,22.89-.63.57-2.91.24-2.91-.68l-.3-40.07c-4.33-1.03-8.37.52-12.21.66-2.57-1.67-4.13-3.84-6.86-3.54-3.64.4-4.81.96-7.65,3.24l-7.77,2.04-.3,9.46c-4.27,1.66-8.55,3.9-13.21,3.61-.92-.14-1.95-2.09-3.36-1.44-.88.41-3.22.11-3.34,2.07-.1,1.8.42,3.73-.53,6.09-5.1-1.71-9.49-2.8-14.7-2.38l.57-60.77-10.76-1.15c.2,1.14.65,1.67.97,2.3l.68.43c.67.36.39,1.45-.53.9-.19-.29-.42-.52-.62-.67l-1.71,9.66c-3.08-9.4,1.39-24.78-3.2-25.97-3.07-.79-7.94.85-10.45,2.47-.75.48-.89,2.32-1.45,1.97-3.55-2.24-1.6-19.3-2.4-29.58-3.94,2.65-6.93,5.26-9.61,8.45l-.44,28.02.17,28.48c.02,3.89-.52,7.39.22,10.8l-2.01,7.95c-.19.75-.66,1.76-1.06,1.96s-1.29.06-1.57-.21l-.26-10.12.09-7.95-.59-37.73.79-2.76c.28-.98-3.45-.98-3.83.27-1.89,6.26-1.22,13.26-1.19,20.3l.22,51.96c.02,4.72,1.06,9.15-.59,13.81-.6,1.7-6.2,2.18-6.67.42l-.77-15.08-7.37-2.21-.67-10.89c-3.75-.49-7.4-.86-10.92.15-4.94,1.41,1,10.73-5.12,13.69l-2.05,21.93-2.12-21.03c-.18-1.79-6.32-1.66-6.43.28l-1.04,18.43c-.13,2.39-1.64,4.85-3.31,6.7l-.94-11.43c-.76-1.4-5.49-1.4-6.41-.03l-1.11,14.29c-1.2-2.29-.77-4.88-.93-7.54l-3.8-1.69v-16.93c-.02-1.31.2-2.62-.86-2.88-.55-2.06.68-3.72,1.12-6.17L568.98.04l162.09.1-.03,138.7Z"/><path class="c" d="M510.76,132.04c-3.19-.9-6.06-.17-7.15,3.26-1.54.58-5.19,1.02-6.34-.13-2.04-3.34-4.73-4.65-9.09-4.33-1.12,4.2.13,7.26-2.27,7.3-.95.01-1.8-.57-1.78-2.01l.29-20.17c.08-5.9.45-11.47-.94-17.17l-11.51-.29c-1.33-.03-2.71-.61-3.47-1.15-2.2-1.56-1.51-39.47-1.64-53.63-2.93-.88-5.34-.59-8.57-.54.98-4.38-.11-6.97-1.63-10.38-1.22-2.75-.1-6.53-.34-9.65-4.38-1.15-7.54-.47-12.4-.4,1.75,5.94-1.52,9.31-3.09,13.5l-.94,18.51-24.83.79-.25,67.37c-.01,3.84-1.32,7.45-2.85,11.13-1.55-5.11-.75-10.08-1.16-15.93-.09-1.25-4.15-.91-5.09-1.71-1.84-1.57-2.42-3.27-4.78-3.19-2.49.09-3.69,1.59-5.59,3.1-.88.7-3.57,0-4.4.54-.95.61-1.76,2.28-1.74,3.91l.25,17.36c-5.98-5.04-2.95-8.81-5-10.45-1.18-.95-5.14-1.27-5.87.38l-1.81,13.15c-.13.93-.72,1.87-1.17,2.26-.71.6-1.85.52-3.07-.05,3.26-2.64,1.84-4.73,1.54-7.64-.44-4.21.56-8.35-1.36-12.48-.2-.43-.36-1.5-.27-1.85s1.13-.61,1.39-.4l.99-.7c-.82-3.12-4.84-1.89-9.36-3.2-3.29-4.14-7.34-3.52-11.93-3.6s-8.03-.04-12.48.45c-3.34.37-7.61-.46-10.43,2.65-1.9-.31-4.43-.75-5.78.28l-.15-116.82,162.81-.04,23.24,131.96ZM375.27,120.48l-1.1,1.22c1.02,1.11,2.09-.44,1.1-1.22Z"/><path class="b" d="M510.76,132.04l10.28,58,14.64.1,7.84-45.21c.32-1.85-.24-3.72.85-4.98,1.06.26.85,1.57.85,2.88v16.93s3.81,1.69,3.81,1.69c.16,2.66-.27,5.24.93,7.54l1.11-14.29c.92-1.37,5.64-1.37,6.41.03l.94,11.43c1.67-1.85,3.17-4.31,3.31-6.7l1.04-18.43c.11-1.94,6.25-2.07,6.43-.28l2.12,21.03,2.05-21.93c6.12-2.96.18-12.28,5.12-13.69,3.52-1.01,7.17-.64,10.92-.15l.67,10.89,7.37,2.21.77,15.08c.48,1.76,6.07,1.29,6.67-.42,1.65-4.66.61-9.1.59-13.81l-.22-51.96c-.03-7.04-.7-14.04,1.19-20.3.38-1.26,4.12-1.26,3.83-.27l-.79,2.76.59,37.73-.09,7.95.26,10.12c.18,6.84.22,13.14-1.7,20.47l-29.21,160.16-103.59-.03-34.61-190.42-15.04.3.06,190.12h-101.28s-.02-189.66-.02-189.66c1.35-1.03,3.88-.59,5.78-.28,2.81-3.11,7.09-2.28,10.43-2.65,4.45-.49,8-.52,12.48-.45s8.65-.55,11.93,3.6c4.51,1.31,8.53.08,9.36,3.2.19,0,.35.06.44.12.99.78-.09,2.32-1.1,1.22-.01-.16-.14-.45-.32-.64-.26-.2-1.3.05-1.39.4s.07,1.42.27,1.85c1.92,4.12.92,8.26,1.36,12.48.3,2.92,1.73,5-1.54,7.64,1.21.57,2.35.65,3.07.05.45-.38,1.04-1.32,1.17-2.26l1.81-13.15c.74-1.66,4.69-1.33,5.87-.38,2.05,1.64-.99,5.41,5,10.45l-.25-17.36c-.02-1.63.79-3.3,1.74-3.91.83-.53,3.53.16,4.4-.54,1.89-1.51,3.1-3.01,5.59-3.1,2.35-.09,2.94,1.61,4.78,3.19.94.81,5,.46,5.09,1.71.41,5.86-.39,10.83,1.16,15.93,1.53-3.69,2.83-7.29,2.85-11.13l.25-67.37,24.83-.79.94-18.51c1.58-4.19,4.84-7.56,3.09-13.5,4.86-.07,8.02-.75,12.4.4.24,3.12-.88,6.9.34,9.65,1.51,3.42,2.61,6,1.63,10.38,3.23-.05,5.64-.34,8.57.54.13,14.15-.56,52.07,1.64,53.63.76.54,2.15,1.11,3.47,1.15l11.51.29c1.39,5.7,1.03,11.27.94,17.17l-.29,20.17c-.02,1.45.83,2.03,1.78,2.01,2.41-.03,1.15-3.1,2.27-7.3,4.36-.32,7.05.99,9.09,4.33,1.15,1.14,4.79.71,6.34.13,1.09-3.44,3.96-4.17,7.15-3.26Z"/><path class="c" d="M304.75,134.01l-9.72-.36c-2.16,10.35,1.66,21.77-1.7,32.62-.75-1.7-1.07-3-3.25-3.28l-.64-7.17-17.89.12-1.25,10.8c-.4.5-2.03-.04-2.24-.81s-.25-1.85.54-3.53l-8.04-.38c-7.1-.33-.94,9.38-5.11,19.28-1.4-2.39-1.08-4.5-1.29-7.44-5.43-.52-10.83-.78-16.57-.06l-.44,10.43c-2.14-1.96-9.29-3.91-10.41-.53l-.92,19.62-30.17.72-.05-124.96c-1.18-2.92-3.96-2.82-6.98-2.81l-79.88.2.11,127.03c-2.93,1.6-5.94.56-9.1.77l-10.94.72c-4.26.28-7.88-.3-12.09-.24l-42.38.6-28.19.12-6.12-1-.04-141.38L.16.18l130.33.02,1.72,1.37,1.75-1.57,124.69.83c21.44.14,38,16.36,43.44,35.39,2.57,9,2.69,16.76,2.69,25.84l-.03,71.95Z"/><path class="b" d="M304.75,134.01l-.23,119.71c-.02,12.25-3.52,23.7-10.97,33.24-8.91,11.41-23.01,19.22-38.47,19.25L.05,306.7v-102.23s6.11,1,6.11,1l28.19-.12,42.38-.6c4.21-.06,7.83.52,12.09.24l10.94-.72c3.15-.21,6.16.83,9.1-.77v26.56s82.76-.04,82.76-.04c2.5,0,4.07-1.78,4.06-4.14l-.03-21.84,30.17-.72.92-19.62c1.12-3.37,8.27-1.43,10.41.53l.44-10.43c5.74-.71,11.14-.45,16.57.06.21,2.94-.12,5.05,1.29,7.44,4.18-9.9-1.98-19.61,5.11-19.28l8.04.38c-.79,1.68-.74,2.79-.54,3.53s1.83,1.31,2.24.81l1.25-10.8,17.89-.12.64,7.17c2.18.27,2.5,1.58,3.25,3.28,3.36-10.85-.46-22.27,1.7-32.62l9.72.36Z"/></svg>