<?xml version="1.0" encoding="UTF-8"?><svg id="a" xmlns="http://www.w3.org/2000/svg" viewBox="0 0 1080 1080"><defs><style>.b{fill:#d80303;}.c{fill:#d90c0c;}.d{fill:#40c914;}.e{fill:#d70202;}.f{fill:#d80404;}.g{fill:#d90e0e;}.h{fill:#d80707;}.i{fill:#d70101;}.j{fill:#31d610;}.k{fill:#d70000;}.l{fill:#fefefe;}</style></defs><path class="l" d="M56.28,643.21c-2.27,1.38-4.6,1.14-7.4.82l-9.18,2.82c-4.29-.35-8.22-2.56-12.29-3.94-2.37,3.47-5.06,2.7-8.3,2.89-2.58.15-6.52,1.97-8.94.18-.33-.24-.38-2.06-.71-1.98-.53.14-1.36.86-2.32,1.97l.33-31.61,1.1-1.77-1.43-1.82.1-22.34.17-16.09,2.7-5.41c-2.02-4.35-.8-8.14.13-12.51.4-1.87-.33-3.82,1.98-5.17-2.15-.49-4.11-1.1-4.74-2.56-1.72-3.97.37-8.52-.09-12.16-.51-4-.28-6.67.31-10.62l-.56-6.27c-.23-2.53-.17-4.29,1.15-6.15-.76-.86-.53-2.93.3-4.22-5.52-10.7,4.86-14.06.18-19.22l-1.63,1.98.23-19.52c.04-3.61-.22-5.88.42-9.89.47-2.94-2.6-7.66.06-10.81l2.13-1.42c.54-.36-1.92-1.98-1.83-2.68.34-2.46.73-5.73-.53-8.19-1.65-3.22.28-5.89.94-8.88l-1.63-8.29c7.25-1.51,13.47.59,20.22,2.36,1.55.41,4.2-.8,5.27,2.54,1.8-3.07,4.01-4.39,7.72-3.66l6.07-1.44,43.5-.13,15.21,16c2.59,2.72,3.9,4.63,6.83,7.58l6.36,6.39c1.84,1.84,4.79,3.53,6.44,5.49l5.95,7.11c3.43,4.09,9.49,7.16,12.01,11.48,2.79,4.77,5.05,7.91,10.08,10.63,5.5,2.97,8.23,9.79,12.71,14.02,1.65,1.56,4.58,1.73,3.47,5.79,1.71.6,3.02.71,5.05.78l33.18,33.24,25.13-25.56,64.36-65.25,13.45-13.76c1.37-1.4,3.5-1.45,3.92-4.27.05-.32.97-.96,1.19-1.24.79-.98.67.19,1.26,2.63,1.64-1,.91-3.43,1.42-4.7,1.02-2.53,3.77-4.03,5.62-6.21l20.59-.36,12.7.67c5.02.26,8.74-.1,13.52-.15l35.88-.4-.02,104.7-11.29,11.08c-5.41,1.5-10.37,5.22-11.06,11.06-5.69,6.47-12.26,11.51-19.47,16.41l-2.97,5.03-26.66,26.83c-.84-.63-1.54-1.24-1.43-1.49l.75-1.69.47-34.72c.06-4.62.91-8.39.17-13-.65-4.06,1.05-8.73,2.32-12.36-1.47-1.67-4.03-3.77-2.96-7.38-4.29-.62-7.63-.57-11.63-.16l-27.46,27.54-7.15,4.72c-1.25,3.84-4.65,5.88-8.17,6.63l-.59,3.14c-.12.63-1.8.14-2.63.09-.19.72.25,1.81.46,2.2s-.88,1.63-1.17,1.31c-.35-.38-.46-1.76-2.05-2.18-1.02,5.2-4.23,9.15-8.2,12.61l-9.56,8.35c-3.33,2.91-13.33,7.78-8.65,10.05-3.39.64-5.43,2.75-9.68,4.82.56.69,1.73.49,2.68,1.12l-19.53,18.84-14.47,12.94-23.97-23.45c-6.32-6.18-13.57-11.75-17.85-18.42-1.78-2.78-4.44-5.89-7.7-8.01l-5.99-7.02c-5.23-6.12-15.99-11.51-12.81-17.01-4.44-2.16-9.37-4.9-12.12-8.91-2.4-3.5-6.31-4.52-9.11-6.98-2.94-2.58-4.98-4.03-8.45-5.94-5.78-3.17-9.98-10.22-14.98-15.2-1.17-1.16-.35-5.27-4.1-4.26.34.62.84,1.67.8,2.19-.05.69-.72,1.56-1.79,1.58l-7.86.14-.19,7.53c-2.71,2.67-.86,4.34-.79,7.13l.48,18.44.03,28.69c0,8.36.2,15.83-.68,23.24-.66,5.52.94,10.35.98,15.77l.14,19.99-11.06.28c-4.53.11-9.01-.04-12.7-2.96ZM344.8,421.44c-1.39,1.59.22,1.69.79,1.68,1.23,0,1.78-1.01,1.41-1.66-.33-.57-1.39-.96-2.2-.03ZM16.22,422.74c-.4,1.83,1.38,2.32,1.89,1.81.74-.72,1.09-1.61.85-2.09-.46-.89-2.47-.96-2.74.27ZM357.25,425.19c-.93,1.24.28,2.14,1.23,1.88.39-.11,1.02.29,1.5-.6.41-.76-.15-1.36-.55-1.46-.57-.15-1.93-.14-2.18.19ZM43.52,627.26c-1.28.25-1.73,1.55-1.53,2.21.13.42.82.86,1.48.54.92-.45.72-2.88.05-2.75Z"/><path class="l" d="M417.86,644.32c-2.16,2.14-6.49,1.7-8.79,2.76l-5.39-4.45c-.18.72-.63,2.51-1.23,2.67l-3.32.85c-2.74.7-5.95-.65-8.88.84-5.04-1.74-9.96-1.23-14.82-.15-1.98-2.41-4.67-2.27-6.88.19l-1.03-3.11c-.73,2.74-3.14,1.16-4.07,1.61-5.45,2.61-10.68.15-10.97-.43-.31-.62.3-2.12.64-3.52-1.5-.97-5.42.31-5.88,2.48-.16.73-.31,1.84-.74,1.92-.55.11-1.44-.37-2.24-1.75-2.18,2.86-10.19,4.41-11.09-.09-.59-2.98,2.68-6.99-.89-9.93,3.07-.68,3.36,1.1,5.04,2.23,1.94-3.62-3.04-6.34-3.63-8.66-1.49-5.92,4.33-8.73,7.93-12.26l49.32-48.39,12-11.16,6.9-6.07c6.15-5.42,10.49-10.2,16.64-15.28,2.28-1.89,2.7-3.83,4.52-5.64l16.07-16,33.95-32.95,30.98-29.98,20.93-20.38,5.79,4.64,21.51,21.57,5.63,7.23c3.27,4.2,8.27,6.4,9.98,12,4.68,1.93,7.49,5.57,8.8,10.32,5.45,3.57,9.76,8.01,14.56,12.4l6.72,6.15c6.08,5.56,17.55,17.56,17.68,15.66.02-.32-.28-.91.21-1.93l21.56,20.75c3.9,3.76,9.43,4.24,14.61,3.32l.17-34.74,2.36-10.91-2.11-19.47-.5-55.68c7.83.37,18.59-1.97,22.93-.74,4.56,1.29,16.79.03,24.12-.05l20.1-.24c2.1-.03,4.36.68,5.37,2.07s.92,3.48.88,5.48l-.6,32.14c-.1,5.13.97,9.6-.93,15.07-2.78,8.04,2.14,25.01-.25,42.16-.44,3.15,1.08,4.92,1.09,7.57l.26,73.44c.01,3.09-3.01,5.57-.77,9.31,1.05,1.76.06,4.82.07,6.81l.09,24.81c0,2.53,1.84,5.02.02,8.05h-33.85c-1.02-1.29-2.62-2.68-3.54-3.35-1.67-1.22-3.54,1.1-4.8,1.08-2.72-.05-4.73-.24-7.42-.11l-9.61.46c-5.9.28-10.61-.81-16.86-.02,1.18-1.97-.11-5.64-1.11-4.83l-6.44,5.28-21.81-23.08c-2.76-2.92-4.25-4.61-6.9-7.26l-39.45-39.56c-2.57-2.58-1.67-7.8-6.44-9.87l-7.82-6.72c-4.63-3.98-8.59-7.94-13.17-11.9l-7.54-6.52-12.44-12.69c-3.71,2.36-5.57,6.02-8.44,8.88l-18.51,18.44c-1.96,1.95-4.04,2.98-5.47,5.64-3.42,6.39-10.98-.16-9.96,7.35.56,4.15-3.68,5.6-5.7,7.81-2.36,2.58-3.76,3.75-6.72,5.57-2.5,1.54-4.01,4.83-7.64,5.28-4.64.57-4.27,5.95-6.18,7.26-1.12.78.13.47,2.51,1.46-10.83,4.71-10.68,15.55-17.5,15.11l-6.79,9.12-24.81,24.61ZM625.1,612.84c-.25-3.36-3.02-3.63-4.52-1.95,1.29,1.43,2.85,2.18,4.52,1.95ZM365.49,631.12c-.21-.96-1.79-1.98-2.62-2.41-1.59,1.18-1.13,2.78.37,3.58.84.44,2.7.87,2.25-1.16ZM658.8,634.44c-1.39,1.58.22,1.7.78,1.69,1.28-.02,1.78-1.01,1.42-1.66-.32-.57-1.38-.96-2.2-.03ZM362.89,639.65c-.79-1.85-1.63-3.22-2.34-3.51-.47-.19-1.47,1.05-1.24,1.5.78,1.55,2.58,2.94,3.58,2.01ZM379.01,639.68c1.95-1.48-.62-2.7-1.31-.9-1.88,1.57.33,2.93,1.31.9ZM415.02,641.48c1.77,1.42,2.89,1.41,3.56.52.86-1.14.54-2.27-.04-3.02-.67-.87-1.57-1.55-2.95-.29-.41.37-1.42.44-1.6.82s.1,1.24,1.03,1.98ZM396.91,639.42c-1.85,1.45-.65,2.85.61,2.7,1.33-.16,1.42-.55,1.58-1.61s-.71-2.25-2.19-1.09ZM335.13,642.76c-.95,1.72.71,2.97,2.19,2.24s-.08-1.09-.09-1.6c-.01-.72-1.1-2.46-2.11-.64Z"/><path class="k" d="M1047.02,582.54l-6.22,1.05c-3.67.62-6.04,1.28-9.36,2.85-2.92,1.05-7.3-1.51-10.53-1.15s-5.52.42-9.18-.41c1.15,2.6,1.65,5.07.04,6.83-2.41,2.63-1.37,5.42-.82,7.91.18.8-.29,2.5,1.24,3.6-4.78,5.39,1.74,10.52-4.41,15.63,3.92,2.38,3.65,6.01,4.08,9.94.34,3.12,2.37,5.96.48,9.74-.62,1.23-.59,3.31.07,4.37,2.22-1.25,4.63,1.12,5.95.78,3.02-.79,4.6-1.44,6.56.38,3.79,3.52,1.35,9.5-2.46,12.17-2.64,1.85-6.21,0-8.66.23s-4.1,2.33-6.64-.92l-.79,6.39c-2.98-.89-4.65-3.41-4.57-7.05-2.21-1.27-5.14-.03-7.51-.7-1.82-.51-3.4-2.15-5.77-.51-4.79,3.33-8.79-4.69-12.95,2.65-6.53-3.77-12.89-4.13-20.04-3.11-5.26.75-11.05,1.31-16.06,3.2-4.64,1.75-8.93,1.36-13.53,1.15-1.97-.09-5.11,3.18-7.67-.02l-4.27-2.92c1.39-1.83,3.07-3.16,4.79-4.37-5.07-1.09-6.93,2.44-8.95,6.09-3.81-1.57-6.9-5.28-10.65-4.74l-9.43,1.37c-4.92-.65-9.47-1.27-14.62.6-1.26.46-4.36.09-5.99.13s-3.33-2.41-5.39-2.92c-1.3,1.88-2.82,3.43-5.34,3.48l-.16,1.89c-.05.56-1.4,1.4-2.37.49,1.69-2.74.23-4.68-2.17-6.09s-4.83.46-5.97,3.71c-2.02.22-6.37,1.32-8.36.34-3.5-1.73-6.7-2.04-10.03-3.13-5.22-1.7-9.02-1.74-14.59-.84-3.49.56-7.26.68-10.64,2.41-5.58,2.85-12.48.18-16.62,3.54-1.66,1.35-4.15-.18-5.87-.1-3.98.2-9.23,1.13-12.61-1.55-2.64-2.1-4.72-1.51-7.97-2.53-1.5-.47-3.49-2.81-6-2.92-3.37-1.18-1.28-7.83-2.24-10.35-1.22-3.21-2.44-4.88-1.16-8.56l.59-13.4c.15-3.45-.2-5.59-.33-8.39l-.45-10-.32-45.51c-.02-3.33,2.59-6.16.21-9.79l2.76-9.23c1.3-4.33.08-6.55-.63-10.42-.45-2.47,1.33-5.95-.48-8.61,2.47-6.88.37-13.4-1.29-20.29,2.09-6.48,3.21-13.56-.38-20l2.47-22.91c.31-2.87,1.19-4.93,1.86-7.34l-3.39-11.6c-.72-2.46.84-3.97-1.25-6.19-1.47-1.56-1.4-4.48-.24-6.32,1.41-2.23,3.53-1.9,6.15-2.02l14.06-.65c9.52-.44,18.02.56,26.84,3.44,5.98,1.95,13.9-1.91,26.19.4l7.11-2.5c5.16.49,10.65,3.26,15.77,1.67,1.94-.6,3.16-2.76,6.05-1.85,21.38,6.67,29.11.24,37.8.1,9.11-.15,10.02,1.68,10.94,1.79l13.4,1.62,8.86-.28,6.96-1.33c3.01-.57,5.91,1.98,9.2,1.61,3.01-.33,6.51-2.67,9.8-1.85,1.95.49,3.33,1.45,5.21-.93,4.69,1.47,10.15,2.61,14.35-.82l49.21.1c2.73,0,5.1,1.22,7.24,1.43l17.44,1.75c1.67.17,4.71-.95,6.59.31,3.8-1.19,9.04-2.91,12.5-1.68l2.97-.79,1.38,2.08c2.57,3.88,4.05,8,1.26,12.04,2.75,1.75,2.27,3.58,2.47,5.84l1.24,14.39,1.43,14.41c.43,4.38-.56,7.17-1.86,11l1.78,8.96c-5.92,15.99-2.08,28.97-3.87,34.67-.75,2.38-.55,4.56.3,6.79-.98,3.2-3.35,6.94.61,9.77l-3.3,5.98c2.15,2.05,1.95,4.38,1.92,6.63l-.22,16.82c-.04,3.09,1.4,5.03-1.17,8.23-1.71,2.13.96,7.61.15,9.99-1.3,3.81-1.22,6.72-1.33,10.66l-.45,16.53c-.19,6.98-1.3,13.15.16,20.13l-.21,14.34-13.29,2.77c-.53,7.51-7.29,1.44-11.44,5.9-1.75,1.88-5.91,2.7-6.87.05-.79-2.17,1.04-5.19.95-6.8-2.01-4.1-1.32-7.05-.64-11.25.3-1.86-2.01-5.24,1.24-7.12l.91,6.01,3.94,5.35c2.2,2.98,5.27-1.79,7.11-2.42l6.43-2.19c4.14-1.41.53-9.94,3.17-15.54-4.37-2.08-4.46-4.85-3.96-8.51l1.23-9.09,1.75-8.96c.3-1.52-.5-4.15,1.95-5.47l-3.14-6.31c-.36-.72,1.79-1.89,3.1-2.15-3.57-2.15-7.36-1.77-11.12-1.14ZM896.98,420.26c-.81.55-1.23,1.8-.96,2.27.3.52,1.7.8,2.44.5,1.09-.43-.08-3.73-1.48-2.77ZM892.5,490.01c.33,1.46.74,2.42,1.25,2.77.38.26,1.34.5,2.89.24-.54-2.56,2.23-5.83,5.07-4.8,1.45.52,2.54,1.85,3.65,1.92,1.27.08,2.15-1.33,2.96-1.78l15.43-8.53,7.85-5.24c2.18-1.46,6.12-.37,8.72-2.26l13.17-9.59c3.03-2.2,3.76-3.02,7.54-3.34,3.26-.27,7.47-3.31,10.69-4.6l11.63-4.65c3.96-1.58,7.49-4.91,12.18-5.73,1.38-.24,2.4,3.4.46,5.33,3.56.25,6.21-2.77,7.49-6.27,1-2.75,5.25-4.11,6.95-1.95.49.49,1.98-1.15,1.49-1.83-.4-.56-1.75-1.78-2.11-3.02,6.67-4.99,13.56-4.8,9.78-7.75-5.08,2.34-10.38.76-15.66-.4l-8.6.99-11.71,1.05c-2.22.2-4.5.15-6.47,1.72-3.38-3.35-7.05-2.4-11.31-2.53l-10.44-.33-19.36.34c-6.69-1.27-12.47.33-19.11-.04l-16-.9c-2.78-.16-5.93.6-7.97,1.98-4.5-2.98-8.93-.27-15.95-1.25-4.65-.65-8.91-.32-13.37,2.04-1.22.64-2.91-1.88-3.88-2.32l-11.06-5.03c-.65-.3-.79-2.5-2.23-1.1l-1.68,1.63c-2.89,1.33-5.08,2.7-7.16,5.05-7.74-.27-15.74-.67-22.24,1.73-2.55-1.29-6.23-1.51-9.21-1.42-2.15.06-3.96-.93-6.49-.53-7.72,1.21-15.03-4.25-18.42,4.94-4.32-5.34-12.12-6.62-16.35-4-1.98,1.22-2.86,3.53-2.87,6.6l-.13,27.57c1.38-.2,2.21-.04,2.68.39.84.76-.68,2.28-.72,2.97l-.65,10.21c-.6.82-2.53,1.93-2.3,3.24.34,1.92,3.38,6.29,5.85,6.67,3.48.54,5.73,2.38,7.97,5.24l4.19-3.49c6.4,1.46,12.38,3.32,19,2.3,1.83-.28,2.97-1.7,4.23.29.89,1.4.91,2.88-.38,4.37,3.75,1.12,4.92-2.59,6.71-4.67,2.42.34,5.91.48,8.4.48h9.44s14.15.62,14.15.62l.22,10.79c.1,4.72.11,9.22,3,13l.84-18.51c.14-3.03,1.86-4.27,1.8-7.9l-.14-7.72c-.07-3.87-.13-7.78,1.04-10.97l1.5-.02,1.22,33.04c.04,1.21.06,1.64.89,2.5s1.03-.32,1.22-.88l.47-1.41c-1.43-3.56-.36-5.89,3-7.83l2.46-3.03c.14-.17,11.08.68,18.64,2.58,3.09-7.75,10.15-.58,15.83-6.94ZM932.05,496.12c-.09-1.12-.79-1.29-1.59-1.25-1.34.08-1.47,1.27-1.5,2.16-3.96,1.48-7.73,4.72-11.58,7.3l-10.29,3.95-6.29,7.05c-5.91.73-14.29,5.79-19.08,10.32-2.99,2.82-7.04,3.99-10.72,5.28l-1.67,2.83-2.93-.41c-3.64-.5-5.64,3.63-8.49,5.59l-9.96,3.02-9.07,3.02-15.64,7.9.42,3.24c.24,1.86-10.91,5.01-16.86,11.15-2.32-3.21-4.16-6.88-3.44-10.87l1.27-1.9c.2-.3-.77-1.26-1.19-1.89,1.4-3.46,1.07-8.12.05-11.63-.39,1.43-.43,3.59-1.5,3.88s-2.03.13-2.04,1.63c0,1.24.87,2.14,2.08,2.49,0,4.09-.71,7.93-1.58,12.28l-1.6,7.93c-.37,1.84-.11,3.05-2.09,3.7-.88.29-1.31,1.46-2.02,1.92l-1.74,1.15-1.64,1.98c-.65-1.66-2.44-5.32-5.19-4.69s-7.18,2.89-8.55,5.17c-1.27,3.19-.81,7.02-3.99,8.76-.38-.71-1.36-1.17-2.13-.66.86-1.36-1.01-4.52-2.51-3.92-2.17.87-6.52,2.28-6.55,4.73.32,4.82.6,10.87-.43,15.52-.15.69,2.99,1.3,2.85,1.92l-.71,3.2-1.41,9.33-.35,11.66c-.12,4.08,1.92,8.05-.36,12.35-.37.69.02,2.27.41,2.74.43.52,1.36,1.02,2.56,1.01l22.72-.16c4.95-4.43,1.7-10.67,5.35-16.98l-.08,2.12c-.15,4.05,2.06,8.3.99,12.53,3.69,1.52,6.7.53,9.99.67,5.75.26,11.26,1.06,16.93-.63,3.88,2.3,7.72,1.74,11.04-1.09,5.17,1.62,9.96,2.03,14.84.92,6.46,1.53,12.68-.15,19.17-.3l14.49-.34,11.43.78,5.4-.78c2.38-.34,6.1,0,8.37-.59,3,2.84,5.56,3.22,9.54,3.19,6.2-.05,13.14,1.82,19.45,0,3.02-.87,5.28-2.24,8.79-.69,3.83,1.69,8.75.72,12.21-.76.57.41,1.59,1.58,2.01,1.56s1.03-1.22,1.89-1.11l4.48.58c2.45.32,4.45-.94,6.88.1.33-2.98.65-5.15,1.78-7.45,3.61.47,4.57,3.21,4.41,6.19l14.53.65,11.33-.41.75-7.94c.34-3.6.72-5.25,1.71-8.44.51-1.66-1.3-4.86,2.91-5.81l-1.96-1.76c-.89-.79,2.57-6.53,2.41-9.01-.22-3.55-1.56-6.92-.15-10.31l-1.41-1.85c1.75-4.6.5-9.26.16-14.06-.17-2.44,1.2-3.89-1.05-6.37-1.52-1.68.67-5.59.61-7.43l-.44-13.37.8-11.84c.06-.88-.3-1.52-.77-1.9-.42-.33-1.6.1-1.5.46l.48,1.81c-1.07,4.93-1.55,9.48-.6,14.67l-1.4,7.96c.97,3.36.02,7.07-.12,10.08-.09,2.01,1.13,7.01-2.02,7.22-4.96.33-9.91-.61-14.41,2.98-1.9.15-5.07-1.32-6.87-2.38-4.06,3.99-8.45,2.5-12.92,2.54-5.98.06-11.05.97-16.86.32-3.13-.35-7.03,1.28-10.35-.49l-4.07,1.32c-12.34-1.75-16.04,3.63-17.87-2.97-6.75,2.72-13.09,2.49-20.03,1.64-4.2-.51-8.34.13-12.11-1.84,4.45-2.48,9.32-4.28,13.8-4.54,1.47-3.5-1.05-3.56-3.21-6.24l7.54-1.61c2.17-.46,3.62,2.59,4.76,3.04,1.65.1,2.02-1.86,2.42-2.39.62-.83,2.78.25,3.47.37.42-1.67.14-4.01,1.29-4.48l3.91-1.62,6.6-4.11c2.85-3.25,5.3-2.96,9.03-2.25,1.53-1.95,5.84-3.23,8.1-4.95l10.77-8.25c5-3.83,9.96-6.98,16.76-6.8,2.46.06,5.27-2.93,7.27-4.01,3.38-1.82,8.73,3.91,13.74-2.36l-5.2.79c1.23-2.34,3.59-3.27,6.08-1.87l-1.19-4.71c6.51,1.28,8.97-2.19,11.22-.38.31,1.36.42,2.95,1.37,3.97,1.44-.98,2.78-2.03,2.59-3.12-.13-.75-1.41-1.33-1.78-1.86-.53-2.27.36-5.89,1.19-8.95,2.27,2.28,5.3,3.53,8.7,1.79l3.91,2.53c4.46-3.3,9.22-4.9,14.04-7.35l6.59-3.34c.61-.31,1.12-.79,1.01-1.07s-.64-.7-1.67-1.23c9.96-2.59,9.27-14.08,17.19-13.07l-.79-28.81-.84-6.42c-.67-5.12.03-9.22.61-14.24.53-4.51-1.08-8.78,1.12-14.06l-12.86,5.72-15.83,7.13c-5.42,2.44-15.35,11.68-22.6,8.39-1.85-.84-4.82-.19-6.05,1.71,6.89,1.06-.25,4.05,1.21,12.2l-6.91.02c-.18-1.74-.27-2.82-.64-3.76l-6.36,3.11c-4.61,2.25-11.15,2.23-15.36,5.61-.53.43.07,2.48-1.2,2.49l-2.67.02c-7.74,2.26-14.02,6.89-21.2,10.44l2.18,7.14c-3.37.11-5.03-1.97-7.13-3.94-3.35.16-3.14,3.37-8.81,5.11ZM1064.14,459.58c-1,2.31.82,2.68,1.95,2.04.9-.5,1.18-1.13.56-1.83-.38-.44-1.94-1.55-2.52-.21ZM753.4,476.07c.93-.88.92-3.42.16-5.09-.02,0-.26.23-.52.53-.08,1.46-.32,3.06.36,4.56ZM806.17,500.13c-.2-1.58-2.14-1.58-2.34,0-.32,2.54,2.66,2.54,2.34,0ZM803.05,511.64c2.02-.44,1.62-1.26,1.44-1.76-.44-1.27-1.21-1.84-1.94-.99l-1.23,1.42c-.74.86-.44,2.14.19,2.81.41.44,1.95.33,1.53-1.48ZM843.37,541.1c.73-.49.77-1.01.68-1.62l-.92-6.24c.78-3.01.47-5.13.41-8.03-.04-1.95,2.03-6.7-1.05-7.77-1.8-.62-.73,3.27-.88,4.72l-1.02,10.14,2.77,8.8ZM928.65,651.11c1.06,2.22,5.25,1.56,7.39.32-2.11-.82-3.83-.17-5.36-.42.43-1.02-.17-3.08-1.34-3.05-.68.02-1.59,1.27-1.47,1.51l.78,1.65Z"/><path class="k" d="M1034.56,613.61c-2.28,1.41-3.58-1.74-4.06-2.7-.71-1.44.81-3.25,1.26-5.01l.74-2.88c.26-1.02,2.65-1.76,3.16-.59,1.2,2.79,1.83,9.37-1.1,11.18Z"/><path class="e" d="M751.83,491.03c-1.22-.47-1.9-1.4-1.89-2.53s.54-1.99,1.92-2.55l-.03,5.08Z"/><path class="k" d="M1030.25,645.21c.48-.72,1.72-.17,1.72.26v1.96c.01.37-.45.69-1.04.13-.69-.67-1.36-1.33-.68-2.34Z"/><path class="e" d="M793.09,577.12c2.72-1.21,3.26-1.98,1.62-2.3.71-.46,1.14-1.64,2.02-1.92.6.14,1.55.58,1.9,1.12-.15-.23.26,7.71-1.06,11.7-1.6-.71-3.87.52-4.89-.36-1.1-1.19,1.03-2.85,2.3-3.94-1.08-.57-2.48.58-3.98.51-.44-2.47,1.34-3.39,2.08-4.81Z"/><path class="k" d="M773.59,587.18c.96,3.69.05,7.26-1.26,11.42-2.71-1.9-.01-4.28-.63-5.58l-1.67-3.48c-.44-.91.82-2.05,1.44-3.02.77-.51,1.75-.05,2.13.66Z"/><path class="g" d="M792.96,630.04l.08-2.12c-1.31-3.06-1.91-7.44,1.54-9.32,1.23,2.47-1.47,4.64-1.19,5.96.57,1.58,1.52,2.4,1.18,3.55-.23.77-.84,1.46-1.6,1.92Z"/><path class="k" d="M803.05,511.64c.42,1.81-1.12,1.92-1.53,1.48-.63-.67-.93-1.95-.19-2.81l1.23-1.42c.73-.85,1.5-.28,1.94.99.18.5.57,1.32-1.44,1.76Z"/><path class="j" d="M930.69,651.01c1.53.26,3.25-.39,5.36.42-2.14,1.24-6.33,1.9-7.39-.32-.06-2.14,1.47-2.18,2.03-.1Z"/><path class="k" d="M801.95,544.87l.04,4.12c-1.21-.35-2.09-1.24-2.08-2.49,0-1.5,1-1.35,2.04-1.63Z"/><path class="d" d="M794.71,574.82c.62.11,1.2,0,2.36.44-.94,1.75-2.42,2.08-3.98,1.86-.13-.47-.11-.79-.12-1.15l1.74-1.15Z"/><path class="k" d="M932.05,496.12c-.9.28-1.83,1.27-3.09.91.03-.89.17-2.08,1.5-2.16.8-.05,1.5.12,1.59,1.25Z"/><path class="k" d="M930.69,651.01l-2.03.1-.78-1.65c-.12-.24.79-1.49,1.47-1.51,1.17-.03,1.77,2.03,1.34,3.05Z"/><path class="k" d="M1003.02,529.96l2.18-1.01c.37.53,1.65,1.11,1.78,1.86.19,1.09-1.15,2.14-2.59,3.12-.95-1.02-1.06-2.61-1.37-3.97Z"/><path class="k" d="M1064.14,459.58c.58-1.34,2.14-.23,2.52.21.61.71.33,1.33-.56,1.83-1.14.63-2.95.27-1.95-2.04Z"/><path class="k" d="M896.98,420.26c1.4-.96,2.58,2.34,1.48,2.77-.74.3-2.14.02-2.44-.5-.27-.47.15-1.72.96-2.27Z"/><path class="k" d="M864,567.05c-2.28-3.74-.29-6.33.6-9.38.07-.97-.29-2.23.09-2.78.67-.97,1.51-2.25,3.33-1.83-1.51,3.22.27,5.98.58,8.92.22,2.13-2.85,4.45-4.6,5.07Z"/><path class="k" d="M774.65,642.17c-1.87-3.7-4.75-3.2-4.77-6.67,0-1.23,1.35-2.98,2.62-2.29,3.46,1.87,4.53,5.63,2.15,8.96Z"/><path class="i" d="M771.98,603.01l.77,7.78c.28,2.79.27,5.17-1.43,7.36-1.14-6.16-2.12-13.8.57-16.26.89.25.91.63.09,1.12Z"/><path class="k" d="M905.56,637.47c-2.66,1.54-7.81,1.02-7.12,2.29l-1.45-2.66c-.49-.89,2.1-1.1,2.73-1.43,2.31-1.18,5.86-.14,5.83,1.8Z"/><path class="b" d="M793.21,618.11c-2.11-2.56-.8-5.13.14-8.77,1.5.36,1.96,2.25,2.25,3.67.42,2.06-.63,3.92-2.39,5.1Z"/><path class="c" d="M771.98,603.01l-.09-1.12c.4-.83-.44-2.72,1.69-3.9.53.61.66,2.03.28,3.28-.22.72-.77,1.45-1.88,1.74Z"/><path class="h" d="M794.8,604.11c-1.78,1.57-2.06-.53-2.38-1.1-.69-1.2-.13-2.62,1.4-2.98l.98,4.08Z"/><path class="b" d="M866.44,540.79c-.87-.23-.95-3.79.51-3.78,1.68.01,1.62,3.38-.51,3.78Z"/><path class="k" d="M797.08,600.68c-1.34.36-1.35-1.14-1.17-2.19.2-1.16.71-2.13,1.79-2.28.31-.04,1.44,1.11,1.21,1.32-.36.33-1.93.7-1.83,3.15Z"/><path class="f" d="M797.4,587.21c.34-.15,1.01.55,1.2.82.43.63-.26,1.18-.62,1.52-.7.65-1.89.4-1.99-.09-.2-.92.45-1.84,1.42-2.26Z"/><path class="k" d="M894.22,638.23c.71-.64,1.53-.25,1.78.27.47.99-1.31,2.44-1.52,2.36-.67-.23-.81-2.13-.25-2.64Z"/><path class="e" d="M846.94,463.49c-3.01-2.13-1.67-5.91,1.35-7.91,1.39,2.57.84,5.69-1.35,7.91Z"/></svg>