<?xml version="1.0" encoding="UTF-8"?><svg id="a" xmlns="http://www.w3.org/2000/svg" viewBox="0 0 1416.13 694.18"><defs><style>.b{fill:#fefefe;}</style></defs><path class="b" d="M0,64.01V.03h65.49c1.1,1.95,1.58,4.04,1.21,6.06-.44,2.44.99,13.35,1.53,21.11l.85,12.28.87,12.27.88,12.27.87,12.27.89,11.38.88,12.29.87,12.27.88,12.27.87,12.27.89,11.38.88,12.29.88,12.27.94,12.3c.48,6.24.86,14.57,1.46,14.77.77.25,2.71.24,3.46,0,1.04-.33,1.8-17.8,2.49-27.07l.85-11.45.95-13.96.87-12.26.87-12.28.84-11.45.94-13.96.86-12.27.83-11.45.94-13.96.87-12.26.86-12.28.82-11.46c.56-7.81,1.11-15.69,1.61-23.6l91.61-.02c1.64,4.93,1.24,10.28,1.65,15.66l.82,10.63.89,12.28.88,12.27.88,12.27.88,12.29.89,11.38.87,12.27.88,12.27.87,12.27.87,12.29.89,11.38.87,12.27.87,12.27.84,12.29c.28,4.15,1.12,7.96.67,12.24-.16,1.5.8,2.89,1.54,3.4s3.82.34,3.74-.57c-.46-4.06.42-7.81.69-11.53l.84-11.44.86-12.28.87-12.27.87-12.27.89-11.38.88-12.29.87-12.27.88-12.27.87-12.27.89-11.38.88-12.29.88-12.27.9-12.27c.3-4.15.97-8.09.99-12.26l.03-7.79c1.3-3.57.98-6.83.91-10.61h66.78s-.35,61.2-.35,61.2l-37.02,275.34-91.2.05c-.98-4.75-1.9-9.64-1.08-14.99-1.76-3.65-.94-7.59-1.24-11.36l-1.03-13.12-.87-12.26-.87-12.28-.84-11.45-.94-13.96-.87-12.26-.87-12.27-.88-12.27-.88-12.27-.88-12.27-.87-12.27-.86-12.28-.8-11.48c-.33-4.7-1.24-9.08-.69-13.92.17-1.5-.81-2.9-1.56-3.4s-3.83-.35-3.75.58c.41,4.44-.75,16.99-1.57,23.85-.5,4.18.13,8.04-1.03,12.3l-.06,7.82c-1.12,4.2-.74,8.11-1.04,12.28l-.91,12.27-.89,12.27-.88,12.27-.88,12.27-.87,12.28-.84,11.45-.94,13.96-.87,12.26-.86,12.27-.82,12.32c-.27,4.05-1.48,8.04-.43,12.27-1.45,3.78-1.2,7.36-1.15,11.37H37.03S0,64.01,0,64.01Z"/><path class="b" d="M665,290.26l.1,46.35-65.9-.03-6.96-21.07-17.54-53.43-18.46-55.94h-7.85s.02,130.46.02,130.46l-74.61-.03V0s136.26.43,136.26.43c11.92.04,22.06,5.51,30.61,12.55,8.55,8.79,13.31,19.48,14.44,31.98.37,4.14,1.04,8.6,1.02,12.93l-.19,70.48-.95,13.25c-1.25,17.41-13.04,33.87-30.34,40.39l40.36,108.24ZM580.88,139.81l-.03-73.93c-1.02-2.02-2.55-3.44-4.47-4.54l-28.02.05v83.05s6.21.96,6.21.96l20.03.14c2.63-1.08,5.04-2.7,6.27-5.74Z"/><path class="b" d="M1016.07,337.43l-109.5.08c-8.75-3.62-16.8-6.92-23.15-14.14-6.71-7.62-12.66-18.19-12.68-29.49l-.41-248.74c3.75-23.44,15.29-37.57,37.84-44.33l106.84.3c7.1,2.01,14.27,5.78,20.12,10.82,9.22,7.95,16.47,20.85,16.48,34.3l.18,245.21c0,10.92-4.96,21.53-10.96,29.31-6.47,8.4-14.68,12.52-24.77,16.65ZM973.28,275.83c1.38,0,4.03-2.97,4.13-4.3l.03-205.32-4.74-4.79-23.26.16c-1.42,0-4.22,2.7-4.44,4.4v205.56c.2,1.65,3.03,4.42,4.46,4.41l23.83-.11Z"/><polygon class="b" points="856.36 337.46 674.71 337.49 674.77 276.2 772.58 71.08 674.71 71.01 674.72 .89 856.36 .89 856.29 63.02 758.7 267.31 856.36 267.36 856.36 337.46"/><path class="b" d="M1416.13.91v70.12l-.61,1.75-75.74.19.21,57.67h67.6c1.42,1.7,2.13,2.54,2.13,2.54l-7.75,68.47c-.15,1.57-1.14,2.38-2.67,2.61l-59.52.18v60.62c24.9.66,50,.84,75.28.54l1.06,1.75v70.12l-152.67-.03V.94s152.67-.03,152.67-.03Z"/><path class="b" d="M1248.56,337.27l-65.75.27-46.37-145.61c-1.42-1.4-3.59-1.36-4.6-.06v145.54s-65.81.06-65.81.06V.9s65.45.08,65.45.08l46.4,145.66c1.69.93,3.08.94,4.86.39V.86s65.8.15,65.8.15l.02,336.26Z"/><path class="b" d="M598.39,694.18h-143.89c-.42-.74-.76-1.25-.88-2.87v-335.36s71.97-.12,71.97-.12l-.04,266.46,72.85.02v71.87Z"/><path class="b" d="M787.09,645.18c-1.69,10.98-3.41,20.1-8.86,28.85-6.08,9.24-14.88,15.52-25.44,19.33l-139.49-.09v-337.36s139.26-.03,139.26-.03c8.03,2.94,13.97,7.02,20.45,12.48,7.58,9.62,13.66,21.24,13.68,34.64l.4,242.19ZM715.1,626.87v-205.04c-1.04-2.27-2.53-3.47-4.47-4.66l-25.38.09v214.65s25.37.09,25.37.09c1.89-1.24,3.63-2.17,4.48-5.13Z"/><path class="b" d="M165.4,632.12c2.21-1,3.26-2.43,4.78-4.11l.11-72.26h71.85s-.07,89.86-.07,89.86c-2.81,24.19-11.31,38.7-34.11,47.94l-105.13-1.05c-11.25-.11-21.36-12.16-26.54-20.56-5.69-9.22-5.9-18.03-7.82-28.35l.03-237.16c2.46-25.28,9.84-40.22,33.98-50.52l105.25.17c22.36,8,31.36,23.35,34.29,46.83l.1,110.75-71.87-.11-.03-91.82c-1.04-2.1-2.53-3.39-4.46-4.61l-21,.3c-1.61.02-4.35,3.15-4.35,5.32v204.62c.23,1.73,3,4.38,4.44,4.4l20.55.35Z"/><path class="b" d="M349.95,280.92l-.95,10.98-.88,10.52-.86,10.55-.85,8.79c-.47,4.86-1.03,9.37-.87,14.75l-70.97.11.29-56L317.5.01h101.86s42.04,276.94,42.04,276.94l.14,59.66h-70.25c.44-4.32-.38-8.07-.75-12.26l-4.58-52.62-34.64.02c-1.61,2.94-1.09,5.87-1.38,9.18ZM379.98,200.41l-8.95-100.38c-.15-1.67.62-3.33-.78-4.09-.87-.47-2.1-.56-4.04-.38l-9.33,104.78c6.56,2,16.69,1.92,23.1.07Z"/><path class="b" d="M364.06,628.48h-32.16c-2.09,3.31-.89,7.04-1.2,10.41l-.99,10.62-.89,10.5-.8,11.47c-.24,3.39-1.61,6.87-.45,10.48-1.48,3.79-1.24,7.35-1.14,11.36h-67.63s.25-58.61.25-58.61l40.17-278.85h97.38s40.17,278.85,40.17,278.85l.25,58.62h-67.67s-.63-11.38-.63-11.38l-.85-10.54-.86-11.41-.9-10.5-1-10.61c-.3-3.17.83-6.59-1.02-10.42ZM359.09,557.42c-1.81-3.17-.93-6.41-1.22-9.55l-.97-10.59-.89-10.51-.88-10.52-.88-10.52-.88-10.52-.88-10.52-.87-10.52-.84-10.53c-.33-4.1-1.35-7.87-.51-12.14h-4.75c.84,4.28-.18,8.04-.51,12.14l-.84,10.53-.87,10.52-.88,10.52-.88,10.52-.88,10.52-.88,10.52-.89,10.51-.97,10.59c-.29,3.15.59,6.39-1.22,9.55h22.41Z"/><polygon class="b" points="960.76 694.18 808.09 694.18 808.08 355.91 960.76 355.85 960.77 426.88 882.64 426.85 882.75 488.15 952.67 488.23 944.75 558.19 882.72 558.44 882.77 623.21 960.77 623.18 960.76 694.18"/><path class="b" d="M1161.52,646.62l.18,46.72-63.16-.02-40.51-130.31c-2.48-.54-4.43-.49-6.92-.07l.02,130.4-71.97-.03v-337.4s139.27-.04,139.27-.04c7.95,2.93,14.1,7.03,20.34,12.47,8.16,9.63,13.61,21.27,13.67,34.58l.4,90c-1.78,11.63-3.81,22.52-11.09,31.37-5.1,6.21-11.01,11.27-18.58,14.11l38.34,108.22ZM1080.98,495.53v-73.8c-1.03-2.03-2.56-3.44-4.47-4.54l-25.39.06v84.11s25.39.06,25.39.06c2.16-1.15,3.8-2.91,4.46-5.87Z"/><path class="b" d="M1273.93,628.48h-32.16c-2.09,3.31-.89,7.04-1.2,10.41l-.99,10.62-.89,10.5-.8,11.47c-.24,3.39-1.61,6.87-.45,10.48-1.48,3.79-1.24,7.35-1.14,11.36h-67.63s.25-58.61.25-58.61l40.17-278.85h97.38s40.17,278.85,40.17,278.85l.25,58.62h-67.64c.11-4.03.34-7.59-1.13-11.38,1.16-3.61-.22-7.09-.45-10.48l-.8-11.47-.89-10.5-1-10.61c-.3-3.17.83-6.59-1.02-10.42ZM1268.96,557.42c-1.81-3.17-.93-6.41-1.22-9.55l-.97-10.59-.89-10.51-.88-10.52-.88-10.52-.88-10.52-.88-10.52-.87-10.52-.84-10.53c-.33-4.1-1.35-7.87-.51-12.14h-4.75c.84,4.28-.18,8.04-.51,12.14l-.84,10.53-.87,10.52-.88,10.52-.88,10.52-.88,10.52-.88,10.52-.89,10.51-.97,10.59c-.29,3.15.59,6.39-1.22,9.55h22.41Z"/></svg>