<?xml version="1.0" encoding="UTF-8"?><svg id="a" xmlns="http://www.w3.org/2000/svg" viewBox="0 0 1466 297"><defs><style>.c{fill:#7bc32d;}.d{fill:#fefefe;}</style></defs><polygon class="c" points="1335.02 281.98 1253.99 282.09 1253.99 17.93 1335.01 17.93 1335.02 281.98"/><polygon class="c" points="1453.02 281.98 1371.99 282.09 1371.99 17.93 1453.01 17.93 1453.02 281.98"/><polygon class="d" points="188.06 141.54 187.89 58.54 118.92 141.05 50.06 58.74 49.99 141.53 13.99 141.52 13.98 17.93 66.9 17.98 119.36 82.24 175.2 18.01 224.01 17.93 224.01 141.52 188.06 141.54"/><polygon class="d" points="223.98 158.47 224.02 282.08 170.78 281.96 118.54 218 63.02 282.07 13.99 282.05 13.99 158.47 49.97 158.46 50.13 241.76 119.17 159.17 187.89 241.61 188.02 158.46 223.98 158.47"/><path class="d" d="M637.5,64.79l.02,34.37c0,7.83-1.76,15.27-4.4,22.51-6.15,11.1-16.76,17.19-29.57,19.79l-131.57.09V17.88s120.38.24,120.38.24c10.99,1.47,20.92,2.69,30.31,8.15l6.89,7.04c5.73,9.39,7.92,20.11,7.93,31.48ZM599.06,79.75c.06-8.9-.38-17.71-4.25-25.66-4.07-3.47-9.06-3.89-14.37-5.09l-70.45-.2v61.86s72.7-.07,72.7-.07c15.79-2.44,16.26-14.6,16.37-30.83Z"/><path class="d" d="M1219.02,141.46l-60.64.04-73.89-91.86c-.89,1.64.02,2.84.55,4.25l-.04,87.64h-37.02s.06-123.49.06-123.49l60.81-.09,74.05,92.04.12-92.06h35.98s.02,123.53.02,123.53Z"/><path class="d" d="M382.87,142.06l-73.76.33-10.18-1.07c-20.46-2.15-35.45-14.83-35.45-34.22v-46.79c-.01-10.16,2.57-19.9,7.17-28.73,5.11-9.82,24.11-14.18,35.94-14.2l83.03-.1c7.43,0,14.78,2.31,21.29,4.65,15.92,5.72,21.63,24.11,21.64,40.32l.02,28.05c0,10.75-1.59,21.27-5.51,31.23-2.92,7.41-7.91,12.98-15.46,15.66-9.06,3.21-18.35,4.83-28.71,4.87ZM375.11,111.27c4.87,0,10.17-1.55,13.54-3.95s5.04-7.7,5.04-11.89l-.02-32.25c0-8.57-6.17-14.98-15.27-14.99l-59.11-.08c-4.42,0-10.32,1.92-13.2,4.59-4.53,4.19-3.55,10.73-4.29,15.96-1.59,11.2-.69,32.58,4.19,38.07,2.6,2.93,8.1,4.65,12.29,4.64l56.83-.1Z"/><path class="d" d="M1065.61,255.14l.39,26.92h-39.08c-.06-9.47,1.11-18.73-2.46-27.59-1.62-2.8-7.17-3.38-10.41-3.32h-66.03s-.03,30.92-.03,30.92l-37.99-.02v-123.62s123.62.19,123.62.19l9.59,1.56c21.12,5.09,23.94,20.85,23.91,41.15-.02,9.58-1.53,19.53-8.96,26.06-4.47,3.93-10.61,4.6-16.3,7.4,4.57.9,9.5,1.34,13.68,3.81,6.52,3.13,9.97,9.09,10.08,16.55ZM1027.92,210.91l-.13-14.44c-.04-4.16-4.43-5.71-8.32-7.01l-71.46-.14v30.94s67.9.01,67.9.01l8.75-2.53c1.87-.54,3.29-4.32,3.27-6.83Z"/><path class="d" d="M576.56,256.15l.46,25.9h-39.09c.05-9.45.79-18.69-2.41-27.61-2.06-2.97-7.85-3.49-11.49-3.29h-65.01s-.03,30.91-.03,30.91h-37.99s0-123.69,0-123.69l124.35.47c10.12.04,18.95,4,25.42,10.7,3.95,5.91,6.92,11.99,6.92,19.12v19.41c.01,7.23-2.86,14.6-8.53,19.23-4.66,3.79-10.52,4.77-16.3,7.51,6.65.86,13.13,2.57,18.5,7.05,3.31,3.84,5.12,8.75,5.22,14.3ZM536.07,217.15c4.39-4.25,2.42-10.92,3-15.67.8-6.53-2.07-10.48-8.69-12l-71.36-.15-.02,30.93,64.06.05c4.01-.55,10.09-.33,13.02-3.16Z"/><path class="d" d="M1006.86,113.09l.15,28.44h-38.98s-.21-21.67-.21-21.67c-.05-5-2.99-8.43-8.1-9.19l-69.69-.06-.04,30.93h-37.99s0-123.69,0-123.69l123.35.48c9.86.04,18.5,3.83,25.43,9.71,11.9,15.75,11.78,54.21-5.13,61.35l-11.74,4.96c7.22.88,13.44,3.15,18.81,7.62,1.88,3.17,4.12,6.84,4.15,11.14ZM968.26,74.59c2.66-6.74,2.62-15,.33-21.29-1.23-3.38-5.86-3.38-8.86-4.41l-69.73-.08v31s68.51-.38,68.51-.38c3.3-.02,8.4-1.41,9.75-4.84Z"/><polygon class="d" points="797.2 91.66 715.02 91.69 715.03 113.63 814.99 113.61 814.97 141.53 676.07 141.53 676.02 17.97 814.97 17.92 814.99 46.85 715.05 46.83 715.04 66.78 808.31 66.78 797.2 91.66"/><polygon class="d" points="1201.14 232.02 1118.29 232.35 1118.3 254.08 1218.99 254.15 1218.97 282.05 1079.99 282.06 1079.99 158.45 1218.97 158.46 1218.99 187.38 1118.05 187.36 1118.04 207.31 1212.26 207.3 1201.14 232.02"/><path class="d" d="M363.06,260.16l-79.87-.03-12.37,21.9-42.23-.06,69.01-123.46,51.21-.03,67.5,123.51-42.24.06-11.01-21.89ZM348.63,234.02l-25.94-47.96-26.31,48.14,52.25-.18Z"/><path class="d" d="M852.59,260.29l-80.09-.19-12.03,21.92h-42.41s68.97-123.53,68.97-123.53h51.16s67.54,123.43,67.54,123.43l-42.34.13-10.81-21.77ZM838.36,234.2l-26.22-48.25-26.31,48.25h52.53Z"/><polygon class="d" points="722.6 207.31 722.98 232.23 629 232.21 629 282.06 590.99 282.04 590.98 158.44 722.77 158.52 722.79 187.3 629.04 187.38 629.04 207.31 722.6 207.31"/></svg>