<?xml version="1.0" encoding="UTF-8"?><svg id="a" xmlns="http://www.w3.org/2000/svg" viewBox="0 0 1000 278.2"><defs><style>.m{fill:#fff;}</style></defs><g id="c"><g id="d"><path id="e" class="m" d="M966.75,71.8c5.48,0,10.67-.09,15.59-.38,5.76,0,11.62-.09,17.66-.38-.38-9.07-.66-9.63-.66-17.19V3.78c-19.46.28-98.53,9.63-104.48,9.63.47,35.14.75,72.17,1.13,101.27.28,29.19.57,54.51.76,76.04.19,25.03-2.46,52.33-2.27,72.46,13.51.19,94.75,6.99,104.19,7.18v-34.95c0-7.18.1-13.23.28-18.04,0-5.76.09-10.67.28-14.55-6.8-.19-13.03-.57-18.61-.85-5.57-.38-10.3-.66-14.08-.85-4.72-.19-8.78-.47-12.19-.66-.66-9.26-.95-24.37-.95-29.85v-8.31c5.39,0,10.39.09,15.11.19,4.72.1,8.88.19,12.47.19h11.24c-.19-8.6-.28-8.69-.28-15.77v-35.14c-12.85.47-22.39.66-28.53.57-6.24-.09-9.92-.19-11.24-.19v-9.35c0-3.02-.09-14.08-.19-17.95-.09-3.78-.09-8.03.19-12.66,4.16-.28,9.07-.38,14.55-.38h0Z"/><path id="f" class="m" d="M759.4,61.59c.1,7.65.19,13.79.19,18.42,0,5.57-.09,9.92-.28,13.23l34.67-.38c.19,28.24.38,53.56.47,76.04.09,22.48.19,25.41.19,41.38,0,18.7-.09,35.33-.28,49.69,9.73-.28,18.23-.38,25.51-.57,7.27-.09,13.32-.19,18.33-.19,5.67,0,10.49.09,14.64.38-.19-22.2-.47-42.32-.66-60.36-.19-18.04-.38-18.23-.47-33.16-.09-14.93-.19-34.1-.19-46.19v-32.59c5.38,0,10.2.09,14.45.19,4.25.09,7.84.19,10.86.19h9.07c-.19-9.73-.28-12.56-.19-20.12.09-7.56.28-13.98.47-19.27.19-6.05.47-14.36.66-19.18-21.16.47-127.81,4.25-127.81,4.25.1,11.15.19,20.69.38,28.24h0Z"/><path id="g" class="m" d="M753.83,86.06c-.28-26.36-.38-38.54-.38-61.5-10.39.28-19.46.38-27.21.38h-35.61c.47,34.01.76,53.18,1.04,82.28.28,29.19.38,54.6.38,76.42v70.09h63.1c-.47-31.46-.75-61.69-.85-90.59-.09-28.91-.28-54.6-.47-77.08h0Z"/><path id="h" class="m" d="M677.88,13.23c-8.5.28-50.54.19-54.79-.09,2.46,29.85,4.35,45.81,5.67,67.07,1.32,21.25,2.36,38.92,3.02,52.8-6.52-18.23-12.19-34.48-17.19-48.84-4.91-14.36-9.07-26.54-12.47-36.56-4.06-11.62-8.5-22.86-11.33-31.74-8.31.47-48.37,8.6-53.28,8.79.47,34.57-.19,60.36,0,87.66.19,27.21.38,50.54.38,69.81,0,22.58-.1,42.22-.38,59.14,8.5,0,16.34.09,23.33.19,7.09.09,13.04.28,17.95.47,5.86.19,10.96.38,15.49.38-1.61-24.37-2.64-45.06-3.4-62.16-.66-17.1-1.23-31.55-1.7-43.36,6.23,17.29,12,33.06,17.1,47.33,5.19,14.26,9.63,22.76,13.41,33.25,4.25,12.28,8.03,23.24,11.43,32.78,9.45-.66,43.26-4.34,46.85-4.82-.95-38.35.1-213.49-.09-232.1h0Z"/><path id="i" class="m" d="M533.06,27.02c-23.71-3.4-126.49-10.49-126.49-10.49.19,11.34.38,20.78.57,28.43.09,7.65.19,13.79.19,18.42,0,5.57-.09,9.92-.38,13.23l32.31-.38c.28,28.25.38,53.56.57,76.05.09,22.48.19,27.3.19,43.26,0,18.8-.09,35.33-.38,49.69,10.39-.28,19.46-.38,27.21-.57,7.75-.1,14.26-.19,19.65-.19,6.05,0,11.24.09,15.59.38-.19-22.2-.47-42.32-.66-60.36-.19-18.04-.38-20.12-.47-35.05-.09-14.92-.19-17.85-.19-29.95v-32.59c5.76,0,10.96.09,15.49.19,4.53.09,3.59.19,6.8.19h9.73c-.19-9.73-.28-28.91-.19-36.37,0-7.75.28-19.08.47-23.9h0Z"/><path id="j" class="m" d="M378.9,155.58c8.69-6.24,15.49-14.17,20.5-23.99,5.01-9.73,6.52-22.01,6.52-36.56,0-27.77-13.04-46.95-27.4-61.02-14.26-14.08-28.62-15.96-59.42-15.96-7.75,0-43.64-1.04-53.66.76,0,35.33-1.13,64.9-1.23,92.86-.09,27.96-.28,51.96-.47,71.89-.19,23.33-.47,43.83-.66,61.59,8.88-.19,17.1-.38,24.66-.38h36.94l-1.32-71.6h3.31c.66,0,1.13-.09,1.32-.38,3.49,12.85,6.71,24.47,9.35,34.76,2.65,10.3,4.91,16.25,6.61,23.61l5.67,22.67c10.01-.47,18.89-.95,26.64-1.51,7.75-.57,14.36-1.04,19.65-1.51,6.24-.47,11.62-.76,16.34-1.04-10.2-28.15-17.95-47.42-23.33-63.57-5.29-15.87-8.6-26.17-10.01-30.61h0ZM338.47,125.73c-3.68,4.63-8.69,6.99-15.11,7.18,0-6.42-.09-13.13-.28-20.12-.19-6.04-.38-12.75-.47-20.31-.09-7.46-.19-15.21-.19-23.24,7.56-.57,13.03,2.17,16.44,8.22,3.4,6.14,5.2,14.45,5.2,25.03-.1,10.96-1.89,18.61-5.57,23.24h0Z"/><path id="k" class="m" d="M242.11,48.46c-5.48-10.2-12.94-18.04-22.39-23.52-9.45-5.48-21.63-8.12-36.27-8.12s-26.35,2.93-35.61,8.79c-9.26,5.86-16.62,14.08-22.1,24.65-5.48,10.58-9.26,23.14-11.33,37.69-2.17,14.64-3.21,30.8-3.21,48.46s1.32,34.86,3.97,48.93c2.64,14.08,6.9,25.88,12.66,35.52,5.76,9.63,13.22,16.81,22.39,21.72,9.16,4.91,20.4,7.37,33.63,7.37,12.38,0,23.05-2.08,32.12-6.05,9.07-4.06,16.53-10.58,22.39-19.56,5.86-8.97,10.3-20.69,13.22-35.14,3.02-14.45,4.63-32.21,4.82-53.09,0-18.8-1.04-35.52-3.02-50.26-2.08-14.64-5.76-27.11-11.24-37.41h0ZM192.9,172.59c-.28,9.64-.85,16.81-1.61,21.73-.76,4.91-1.7,8.13-2.93,9.63-1.13,1.51-2.46,2.27-3.97,2.27-1.89,0-3.49-.76-4.82-2.27-1.23-1.51-2.27-4.72-3.02-9.63-.75-4.91-1.32-12-1.79-21.25-.47-9.26-.66-21.73-.66-37.22s.09-27.87.28-37.41c.19-9.63.66-17.1,1.32-22.39.66-5.29,1.61-8.88,2.83-10.67,1.32-1.79,3.02-2.74,5.1-2.74,1.7,0,3.21.76,4.44,2.36,1.32,1.6,2.27,4.82,3.02,9.73.76,4.91,1.32,12.09,1.61,21.44.28,9.35.47,21.82.47,37.41.19,16.44,0,29.47-.28,39.01Z"/><path id="l" class="m" d="M62.63,75.95v-12.85c8.78-.19,16.44-.38,22.96-.57,6.52-.09,11.81-.19,15.96-.19,4.82,0,8.88.09,12.19.38v-27.11c0-7.65.09-14.08.38-19.46,0-6.05.1-11.24.38-15.59-17.38.47-32.97-.1-46.85.09-13.89.28-25.88-.66-36.08-.66C19.74.28,9.26.28,0,0c.66,35.14,1.23,69.34,1.6,98.62.38,29.28.66,54.5.85,75.86.19,24.75.38,103.72.38,103.72l62.44-13.13c-.47-12.94-.76-48.84-.85-60.46-.09-11.62-.28-29.66-.57-40.05,8.12-.19,12.19-.38,17.95-.38h8.41c4.34,0,8.12.09,11.15.38-.28-8.78-.38-.57-.38-8.03s.95-23.24.95-28.53v-22.39c-13.41.47-16.06.66-23.99.66h-15.12c-.19-7.65-.28-9.07-.19-15.12v-15.21h0Z"/></g></g></svg>