<?xml version="1.0" encoding="UTF-8"?><svg id="a" xmlns="http://www.w3.org/2000/svg" viewBox="0 0 1208 277"><defs><style>.c{fill:#fefefe;}</style></defs><path class="c" d="M217.01,134.37l-33.01.17-.04-70.92-10.03,10.19-29.93,30.8-28.13,28.63c-3.37-5.39-7.6-8.79-11.51-13.02l-11.99-12.99-10.99-11.96-12.03-12.93c-3.91-4.2-7.23-8.42-11.67-12.39-2.02-1.8-2.78-5.04-5.66-6.22l-.13,70.6-32.91.19V13.96s33.65.04,33.65.04l10.36,10.96,14.01,14.91,14.98,15.94,14.01,14.92,12.62,13.13c1.6-2.84,3.18-4.43,5.1-6.43l11.27-11.69,13.01-13.93,13.98-14.94,13.01-13.9,8.37-8.97,33.64-.04v120.41Z"/><path class="c" d="M216.96,266.17c0,2.54-2.55,1.08-3.4,1.08h-29.64c-3.79-.84-6.47-5.98-9.17-8.81l-10.79-11.35-13.95-14.92-12.04-12.95-13.68-14.29c-2.35-2.45-3.68-5.73-6.58-6.65l-15.72,16.94-14.02,14.95-14.98,15.92-14.23,14.85c-1.54,1.6-3.19,5.8-5.85,5.86l-33.92.67-.02-120h33s.07,69.92.07,69.92l9.93-10.18,11.01-11.93,11.98-12.95,11-11.95,10.2-10.78c3.32-3.51,5.76-7.27,10.02-10.56l29.78,30.3,28.18,28.74c3.34,3.41,5.66,7.4,9.81,10.2l.02-70.83,33.02.02-.05,118.69Z"/><path class="c" d="M376.82,134.28l-87.24.19c-4.17-1.75-7.96-.67-12.04-1.41-11.35-2.05-22.38-6.48-28.06-16.96-3.15-5.8-5.1-12.93-5.1-19.78l.03-47.98c0-7.58,2.6-14.44,6.29-20.81,5.94-10.27,18.55-13.48,30.69-15.54h103.21c8.56,1.87,16.62,2.76,23.52,7.85,7.98,5.9,13.41,15.18,13.4,25.56l-.09,55.57c-.02,12.82-8.53,23.41-19.35,28.38-8.37,3.3-15.94,3.78-25.25,4.91ZM386.55,85.26l.02-24.06c.01-12.42-8.21-21.25-18.66-21.22l-70.62.21c-8.96.03-16.97,8.17-16.92,16.81l.2,34.14c.05,7.9,7.87,14.23,15.7,14.23l73.43.03c10.42,0,16.83-8.59,16.84-20.14Z"/><path class="c" d="M621.87,101.73c-1.62,9.55-4.97,16.95-12.25,22.61-7.21,5.22-15.77,6.57-25.06,8.1l-133.57.12V12.94s132.79,0,132.79,0l11.18,2.05c15.14,2.46,25.29,13.85,26.87,29.25l.04,57.49ZM587.64,85.71l.16-22.86-.97-8.74c-1.47-8.25-7.09-12.7-15.46-14.09l-86.39-.21v64.9s83.38-.38,83.38-.38c11.48-.05,19.18-7.22,19.26-18.61Z"/><path class="c" d="M1188.97,12.95l.05,119.59-56.6-.08-78.18-88.04-.38,87.91-34.87.19V12.93s56.72.07,56.72.07l77.57,87.66c1.31,1.9,3.03-.55.75-1.48l.02-86.05,34.91-.19Z"/><path class="c" d="M988.06,132.43l-34.11.13-.4-18.55c-.14-6.26-4.36-13.07-11.92-13.11l-76.6-.34-.05,31.97-33.99-.03V12.9s131.6.26,131.6.26c6.12.01,11.49,3.23,16.14,5.88,11.29,10.46,10.55,27.41,9.7,42.78-.63,11.47-7.37,19.83-20.04,22.4,10.88,1.07,17.57,7.47,19.05,18.18l.61,30.04ZM952.12,44.3c-1.89-1.95-5.43-4.27-9.44-4.28l-77.68-.21.2,33.85,77.46.04c4.45-.81,7.95-2.37,10.01-4.99,3.48-4.43,3.73-19.98-.55-24.41Z"/><path class="c" d="M1038.04,267.39l-30.06-.31c-1.26-.01-2.48.96-3.06.5-3.16-2.47,4.75-32.07-14.46-32.15l-72.91-.32.48,28.95c.02,1.28-.63,2.34-1.45,3.09-.64.59-2.16.63-3.58-.16l-30,.47-.03-120.11,127.28.51c15.91.06,27.44,11.31,27.57,26.49,2.06,8.76,1.21,17.15.12,25.75-1.42,11.29-7.74,15.82-19.09,18.53,4.86,2.07,10,3.77,13.27,8.42s5.68,10.37,5.72,15.99l.17,24.33ZM1004.73,198.8l-.03-14.32c0-4.66-4.88-8.9-10.01-8.91l-77.14-.24v32.89s77.13-.16,77.13-.16c5.1-.01,10.05-4.28,10.05-9.26Z"/><path class="c" d="M560.22,267.09l-28.1.07c-.72.22-1.77.86-2.2.42-.62-.64-.96-1.44-.98-2.5l-.37-16.5c-.16-7.02-5.13-13-13.19-13.06l-65.34-.47-.09,32.44-30.79-.38-1.71.66c-.39.15-1.44-.73-1.44-1.91l-.02-118.47,118.58.35c8.4.02,15.73,3.58,21.56,8.32,10.15,12.88,9.36,35.42,5.01,51.18-3.62,6.94-10.25,9.25-18.04,12.23,10.86.93,18.04,7.81,19.47,18.24l.57,28.23c.01.67-.78,1.48-1.06,1.64s-.92.29-1.85-.49ZM526.82,204.82c4.48-4.62,3.19-10.13,3.37-15.36.25-7.21-2.84-12.93-10.54-14.04l-69.64-.08v32.91s65.99,0,65.99,0c3.76.19,8.21-.75,10.82-3.44Z"/><polygon class="c" points="776.57 83.54 686.02 83.73 686.03 106.61 795.75 106.68 795.96 132.52 651.99 132.54 651.99 12.94 792.96 12.95 792.97 37.87 686.03 37.85 686.03 61.78 788.33 61.79 776.57 83.54"/><path class="c" d="M1183.97,218.2h-91.94s0,22.94,0,22.94l96.95-.02v25.92s-127.71.03-127.71.03l-1.81.71c-.43.17-1.47-.77-1.47-1.92l-.02-118.41h130.97s.1,24.83.1,24.83l-96.79.19-.24,23.83,91.94-.02v21.92Z"/><path class="c" d="M356.05,245.15l-78.41-.07-10.31,20.12c-1.42,2.77-2.93,2.06-5.32,2.05l-30.84-.14c-.85,0-1.78.93-2.16.57-.89-.81-1.16-1.51.07-2.74l63.71-117.46,47.13.02,65.92,119.83-33.83-.21c-1.37,0-2.74.98-3.77.18s-1.58-1.9-2.27-3.21l-9.91-18.95ZM289.72,222.22l53.74-.29-27.15-50.71c-7.01,12.27-12.9,24.07-18.92,36.37-3.1,4.66-5.43,9.3-7.67,14.64Z"/><path class="c" d="M829.99,265.36l-10.95-20.23-78.4.09-9.94,19.54c-.58,1.14-1.11,1.91-1.93,2.55-1.03.79-2.41-.19-3.76-.18l-33.87.21,64.82-119.84h47.01s64.92,117.46,64.92,117.46c1.04.96.92,1.58.71,2.05-.8,1.75-1.98.17-2.65.17l-30.97.05c-2.28,0-3.43,1.02-4.98-1.86ZM753.01,222.2l53.96-.15-27.45-51.11-19.61,38.09-6.89,13.17Z"/><polygon class="c" points="691.67 200.44 678.37 225.25 621.02 225.17 620.84 267.85 586.99 268.03 586.98 147.45 711.97 147.46 711.76 174.29 621.02 174.38 621.01 200.24 691.67 200.44"/></svg>