<?xml version="1.0" encoding="UTF-8"?><svg id="a" xmlns="http://www.w3.org/2000/svg" viewBox="0 0 1466 297"><defs><style>.b{fill:#d60000;}.c{fill:#fefefe;}</style></defs><polygon class="b" points="1336.11 282.98 1250.13 283.1 1250.13 15.04 1336.1 15.04 1336.11 282.98"/><polygon class="b" points="1228.18 282.98 1142.2 283.1 1142.25 35.74 1154.36 15.06 1228.18 15.05 1228.18 282.98"/><polygon class="b" points="1444.05 263.39 1432.86 283.06 1359.06 283.05 1359.06 15.04 1444.03 15.03 1444.05 263.39"/><path class="c" d="M208.88,50.48c-2.44-.92-4.52-.57-7.29-.49l-38.41,94.86-55.08.15-38.36-94.69c-2.38-.59-4.31-.57-6.8-.09l.02,94.78H20.98s0-130.02,0-130.02h73.02s38.15,94.68,38.15,94.68c2.67.64,4.92.68,7.34,0L177.57,15.11l73.27-.15v130.04s-42,0-42,0l.04-94.53Z"/><path class="c" d="M208.84,161.1l42-.13-.02,94.83-12.27,27.18-61.16.07-38.17-87.06c-2.73-.18-4.76-.24-7.07.28l-12.01,27.06-26.52,59.65-72.65.03v-122.02s42,0,42,0l-.02,86.77c2.48.5,4.39.51,6.9-.09l38.8-86.73,54.79.1,33.69,76.57c1.97,3.34,3.17,6.41,3.95,10.25l7.8-.02-.03-86.74Z"/><path class="c" d="M612.57,32.05v95.53s-17.43,17.41-17.43,17.41l-150.46.04V14.98s151.73.02,151.73.02c2.33,3.62,5.1,5.6,7.74,8.32s4.31,6.01,8.42,8.72ZM573.65,114.96l-.13-70.89-89.8-.09-.36,71.04,90.29-.06Z"/><path class="c" d="M415.53,144.96l-135.27.04-17.42-17.42V32.42s17.41-17.41,17.41-17.41h135.03s17.41,17.41,17.41,17.41v95.16s-17.16,17.38-17.16,17.38ZM392.8,110.29l-.07-61.11c1.4-1.23.79-5.13-1.05-5.13h-89.79s-.16,68.98-.16,68.98c0,1.83,1.46,2.71,3.29,2.97l84.48-.04c1.51,0,3.06-1.26,3.85-1.97.54-.49-.55-2.09-.55-3.69Z"/><path class="c" d="M1120.26,144.93l-64.83.08-52.8-94.29c-1.99-1.07-3.95-1.05-6.32-.46l.02,94.75h-37.99s0-130.03,0-130.03l65.22.08,52.18,93.28c2.3.92,4.16,1.02,6.54.43l-.02-93.76h37.99s.02,129.93.02,129.93Z"/><path class="c" d="M919.58,100.46l27.18,44.25-44.06.29-25.37-46-57.29.08.31,45.78-39.84-.02-.08-129.87,143.48.04,17.25,17.55v38.88s-17.13,17.46-17.13,17.46l-15.32.18c-2.47,6.27,5.66,2.4,10.85,11.38ZM904.28,71.88l-.11-29.81-84.19-.1-.03,29.98,84.33-.07Z"/><polygon class="c" points="768.46 92.98 663.57 93 663.57 118.01 768.46 117.99 768.44 145 624.56 145.01 624.56 14.99 768.45 15 768.46 42.01 663.58 41.99 663.58 66.01 768.46 65.99 768.46 92.98"/><path class="c" d="M543.48,241.85l25.24,41.11-41.43.12-23.78-43.06-47.82-.03v43.01s-25.75-.02-25.75-.02l-11.22-25.15-.02-96.85h127.83c3.3,1.94,5.34,4.7,7.28,7.87,3.7,3,6.9,6.35,9.9,10.11l-.16,34.67-17.23,17.22-13.56.12-.05,3.93c5.03-.27,7.75,2.97,10.77,6.93ZM528.64,187.15c-2.66-1.79-4.3-.15-6.04-.16l-66.78-.31-.12,28.35,72.73-.13.22-27.75Z"/><path class="c" d="M965.64,241.41l25.33,41.24-41.27.33-23.47-42.97-48.82-.03v43.01s-25.04,0-25.04,0l-10.93-24.21-.03-97.8,127.5.05,16.39,16.35v37.27s-16.28,16.23-16.28,16.23l-14.39.29c-1.83,5.47,6.02,1.85,11.02,10.25ZM951.02,187.62c0-1.79-4.64-1.59-5.65-.58l-64.78-.07c-.91-.81-1.86-.8-2.29-.5-.54.39-.97,1.54-.96,2.48l.08,26.07,73.73-.13-.13-27.28Z"/><polygon class="c" points="1120.22 234.98 1036.31 235 1036.32 258.01 1120.22 257.99 1120.2 283 999.3 283.01 999.3 160.97 1120.28 161.08 1119.98 186.92 1036.33 187.01 1036.32 209.01 1120.22 208.99 1120.22 234.98"/><path class="c" d="M367.4,259.01h-67.65s-9.72,23.83-9.72,23.83l-39.71.11,55.59-121.95,57.17.03,56.3,121.89-42.3.09-9.69-23.99ZM357.71,234.93l-20.03-49.63c-2.78-.58-5.05-.59-7.81,0l-20.32,49.7,48.16-.07Z"/><path class="c" d="M788.58,259.02l-67.7-.02-9.64,24-40-.04,55.57-121.92,57.03-.1,56.39,121.91-42.13.26-9.52-24.09ZM778.72,234.99l-20.18-49.78c-2.92-.4-5.17-.48-7.87.04l-19.86,49.73,47.91.02Z"/><polygon class="c" points="691.66 211.06 680 237.04 612.58 236.98 612.58 283.01 576.6 282.99 576.59 160.98 697.49 161 697.51 187.01 612.61 186.99 612.6 210.99 691.66 211.06"/></svg>