<?xml version="1.0" encoding="UTF-8"?><svg id="a" xmlns="http://www.w3.org/2000/svg" viewBox="0 0 1484.16 257.16"><defs><style>.d{fill:#d6001c;fill-rule:evenodd;}</style></defs><path id="b" class="d" d="M653.2,149.8h14.79v65.26l-1.61.32c-3.86.64-7.39,1.29-11.25,1.29-7.39,0-12.54-2.25-15.75-6.43-2.89-3.86-4.82-11.57-5.79-23.47-.96-11.25-1.29-30.86-1.29-58.18,0-28.93.96-48.86,2.57-60.11,1.61-11.57,5.14-18.64,10.29-21.86,4.82-2.89,13.5-4.18,26.36-4.18,11.57.32,23.47,1.29,35.04,3.21V6.75c-7.39-2.25-14.79-3.86-22.18-4.82-8.36-1.29-16.72-1.93-25.07-1.93-19.61,0-34.4,3.54-44.04,10.29-9.64,6.75-16.39,18.97-19.93,36.32-3.86,17.68-5.79,45.33-5.79,81.65s1.93,63.65,5.46,81.65c3.54,17.68,9.64,29.9,18.64,36.65,9,6.75,22.5,9.97,40.5,9.97,9.64,0,19.29-.64,28.93-2.25,8.04-.96,16.07-2.89,24.11-5.14V108.01h-53.36v41.79h-.64ZM473.18,118.62h-5.46L433.64,3.21h-40.5v250.74h41.15v-127.62h5.14l37.29,127.62h38.25V3.21h-41.47l-.32,115.4ZM858.29,161.69c0,17.68-.32,29.9-.64,36.32-.64,6.75-1.61,11.25-3.86,13.18-2.25,2.25-6.11,3.54-11.57,3.54s-9.32-1.29-11.57-3.54-3.21-6.43-3.86-13.18c-.32-6.43-.64-18.64-.64-36.32V3.54h-43.72v140.15c0,33.43.96,57.86,3.21,72.33,1.93,14.14,7.07,24.75,15.43,31.18,8.04,6.43,22.18,9.97,41.47,9.97s33.43-3.21,41.47-9.97c8.04-6.43,13.5-17.04,15.43-31.18,1.93-14.47,3.21-38.9,3.21-72.33V3.54h-44.04l-.32,158.16ZM72.33,193.52h-9.64L44.04,3.21H0l32.15,250.74h68.79L133.08,3.21h-43.08l-17.68,190.3ZM225.34,3.21l-35.36,250.74h43.4l23.79-196.73h4.18l17.04,141.12h-31.82l-4.18,39.22h40.5l1.93,16.39h44.36L293.81,3.21h-68.47ZM1003.58,3.21l-35.36,250.74h43.4l23.47-196.73h4.18l17.04,141.12h-31.82l-4.18,39.22h40.5l1.93,16.39h44.36L1071.73,3.21h-68.15ZM1271.68,156.55c7.39-6.75,12.54-16.07,14.47-26.04,2.89-15.11,4.18-30.22,3.86-45.65.32-16.07-.96-31.82-4.18-47.58-1.93-9.97-7.39-19.29-15.43-25.72-7.71-5.79-19.29-8.68-34.4-8.68h-65.58v250.74h43.72v-86.79h18l18,86.79h45.33l-24.11-96.76.32-.32ZM1245,112.19c-.64,5.46-2.25,9.32-4.82,11.25-3.54,2.25-8.04,3.21-12.22,2.89h-14.14V45.97h14.14c4.18-.32,8.68.64,12.22,2.89,2.89,2.89,4.82,7.07,4.82,11.25.96,8.68,1.29,17.36.96,26.04.32,8.36,0,17.04-.96,26.04h0ZM1465.19,14.14c-8.36-7.07-22.5-10.61-42.75-10.61h-56.25v250.74h56.25c19.93,0,34.4-3.54,42.75-10.61,8.36-7.07,13.5-18.64,15.75-34.07,1.93-16.07,3.21-43.08,3.21-80.36s-.96-64.61-3.21-80.36c-2.25-16.07-7.39-27.65-15.75-34.72h0ZM1439.8,186.77c-.64,14.47-2.89,18.32-4.18,20.25-2.25,2.89-6.75,4.5-13.18,4.5h-12.86V45.65h12.86c6.43,0,10.61,1.61,13.18,4.5,1.29,1.93,3.54,5.79,4.18,20.25.64,10.29.96,29.9.96,58.18s-.32,47.9-.96,58.18h0Z"/></svg>