<?xml version="1.0" encoding="UTF-8"?><svg id="a" xmlns="http://www.w3.org/2000/svg" viewBox="0 0 1244.41 344.12"><defs><style>.d{fill:#fb0a33;}.e{fill:#fff;fill-rule:evenodd;}</style></defs><g id="c"><path class="d" d="M712.23,158.03h42.38c8.8,27.89,17.68,56,27.21,86.2,9.91-20.58,42.45-88.13,45.67-94.78,15.64,31.67,30.57,61.91,46.81,94.78,9.37-30.13,18.06-58.07,26.84-86.28h42.18c-6.89,20.92,8.56-26.16-60.89,185.65-9.2-18.17-42.21-83.38-55.27-109.18-18.92,36.86-43.98,86.25-55.93,109.69-2.83-9.24,6.45,20.35-58.99-186.09"/><path class="d" d="M269.27,338.32c-3.91,0-7.82.01-11.72.02-42.2-3.54-75.02-28.88-85.81-66.27-17.61-61.02,28.75-119.45,93.55-117.9,44.65,1.07,80,28.71,90.32,70.63,12.09,49.09-18.54,98.97-68.08,110.64-5.98,1.41-12.17,1.95-18.26,2.89M263.1,299.25c29.02.05,52.83-23.82,52.86-52.98.04-28.92-24.12-53.51-52.66-53.61-28.61-.09-52.72,24.32-52.76,53.42-.04,29.41,23.4,53.13,52.56,53.17"/><path class="d" d="M1088.53,157.35c29.59,0,58.25-.49,86.89.12,41.4.89,68.85,34.3,61.06,73.57-2.92,14.7-11.07,26.08-23.18,34.72-3.43,2.44-7.16,4.46-11.79,7.32,7.08,10.1,14.07,20.06,21.04,30.04,7.01,10.03,14,20.09,21.85,31.36h-50.44c-11.33-16.98-23.07-34.55-34.58-51.8h-31.31v51.84h-39.55v-177.17ZM1128.57,242.81c16.31,0,32.1.76,47.77-.23,13.34-.84,20.9-10.3,20.8-23.14-.1-12.3-7.52-21.73-20.16-22.53-15.99-1.01-32.09-.24-48.41-.24v46.14h0Z"/><path class="d" d="M516.08,156.16c29.57.51,58.23-1.07,86.84.9,44.17,3.05,79.07,37.01,82.69,78.11,4.56,51.84-30.97,87.8-70.57,95.9-6.87,1.41-13.69,2.35-20.69,2.34-25.88-.03-51.76-.01-78.27-.01v-177.24h0ZM556.07,296.11c17.68-.29,34.97,2.01,52.04-2.27,21.62-5.42,36.7-23.91,37.65-45.78.94-21.32-12.18-40.61-32.98-47.97-18.69-6.62-34.15-4.79-56.72-4.8v100.82Z"/><path class="d" d="M101.85,338.29c-3.91.02-7.81.05-11.72.07-43.81-3.54-75.97-29.38-87.28-68.72-4.9-17.02-4.04-41.24,6.99-64.34,8.95-18.75,36.45-45.78,69.56-49.94,38.28-4.81,69.26,6.6,94.07,38.61-10.78,8.12-20.66,15.58-32.38,24.41-11.42-16.91-27.48-26.37-48.09-25.48-14.96.65-27.5,6.96-37.48,18.23-19.76,22.28-17.28,55.57,5.31,75.53,18.07,15.96,56.45,21.39,79.47-11.9,11.04,6.78,21.69,15.09,32.98,23.54-18,24.51-41.78,37.32-71.42,39.98"/><path class="d" d="M1077.86,334.95h-43.1c-4.64-10.74-9.15-21.14-13.64-31.39h-64.5c-4.47,10.19-9.08,20.65-13.76,31.31h-43.48c30.21-61.49,59.98-122.07,90.85-184.9,6.44,13.42,11.95,24.88,17.71,36.88-9.48,27.01-25.07,51.61-35.74,78.98h32.43c-4.94-11.97-9.97-23.59-11.82-27.87,6.5-9.45,15.74-22.53,23.44-33.34,20.62,43.61,40.69,86.05,61.63,130.33"/><polygon class="d" points="408.11 296.36 505.56 296.36 505.56 334.39 368.77 334.39 368.77 157.87 408.11 157.87 408.11 296.36"/><path class="e" d="M121.79,1.07H10.88v123.77h99.12s27.32,0,27.32-19.82v-30.01s1.07-9.11-9.64-12.06c0,0,9.67-1.87,9.67-10.44v-27.33s4.26-24.11-15.56-24.11M108.39,98.05H40.88v-23.57h67.51v23.57ZM108.39,47.15H39.81v-19.83h68.58v19.83Z"/><polygon class="e" points="155.54 0 184.47 0 184.47 98.05 270.74 98.05 270.74 124.84 155.54 124.84 155.54 0"/><path class="e" d="M376.82,2.68h-27.86l-68.04,122.15h28.93l17.15-28.93h69.38l14.74,28.93h32.68L376.82,2.68ZM338.78,74.47l22.5-42.33,23.57,42.33h-46.08Z"/><polygon class="e" points="591.67 .53 622.21 .53 622.21 44.47 683.29 1.07 729.37 1.07 640.42 60.01 741.15 124.84 687.57 124.84 621.67 79.29 621.67 124.84 591.67 124.84 591.67 .53"/><path class="e" d="M1075.48,2.68h-108.23v123.77h30v-45.54h75.01s19.83-3.75,19.83-21.43V27.33s0-24.65-16.61-24.65M1064.23,57.33h-66.43v-31.07h66.43v31.07Z"/><path class="e" d="M926.27,2.14h-96.98c-12.58,0-22.77,10.2-22.77,22.77v77.15c0,12.58,10.19,22.77,22.77,22.77h96.98c12.57,0,22.77-10.19,22.77-22.77V24.91c0-12.57-10.2-22.77-22.77-22.77M917.96,98.05h-81.98V28.93h81.98v69.12Z"/><path class="e" d="M545.59,88.33v9.71h-69.65V28.93h69.65v11.16l32.68-6.47v-8.72c0-12.57-9.43-22.77-21.06-22.77h-89.68c-11.63,0-21.06,10.2-21.06,22.77v77.15c0,12.58,9.43,22.77,21.06,22.77h89.68c11.63,0,21.06-10.19,21.06-22.77v-5.83l-32.68-7.9Z"/><path class="e" d="M1233.53,32.68v-10.18s-.54-20.36-26.79-20.36h-75.01s-21.97,3.21-21.97,21.43v29.73s-1.07,21.17,22.5,21.17h76.08v23.57h-77.15v-8.04l-28.4,4.82v11.79s4.29,18.22,20.36,18.22h90.01s20.36.54,20.36-23.57v-30.54s-2.68-20.9-21.97-20.9h-78.76v-22.5h72.33v9.91l28.4-4.55Z"/></g></svg>